<svg width="211.7mm" height="211.79mm" version="1.1" viewBox="0 0 211.7 211.79" xmlns="http://www.w3.org/2000/svg">
 <path d="m1.2884 5.1569s-7.5578 91.951 13.936 172.2l90.601 34.44 90.604-34.44c21.53-79.276 13.939-172.2 13.939-172.2z" fill="#070610"/>
 <path d="m185.34 4.672c18.43 105.65 0.29554 163.89 0.29554 163.89l-79.995 31.588-80.046-31.588s-18.507-59.419 0.8636-167.11h-20.909l-0.32465 4.1206s-7.2901 90.861 13.382 168.39l86.978 33.671 86.978-33.671c20.635-78.477 13.381-168.39 13.381-168.39l-1.4425-5.3052" fill="none" stroke="#eb6100" stroke-dasharray="4.76249807, 1.32291613" stroke-linecap="round" stroke-linejoin="round" stroke-width=".52917"/>
 <path d="m211.64 57.851c-0.17356 10.341-0.60245 21.778-1.4393 33.865h-208.56c-0.84719-12.102-1.2853-23.535-1.4658-33.865z" fill="#fff"/>
 <path d="m208.47 110.29c-0.66093 6.3762-1.4457 12.857-2.3746 19.388h-200.41c-0.93027-6.5376-1.7171-13.018-2.3807-19.388z" fill="#fff"/>
 <path d="m210.73 11.712h-209.56" fill="none" stroke="#fff100" stroke-dasharray="4.76249807, 1.32291613" stroke-linecap="round" stroke-linejoin="round" stroke-width=".52917"/>
 <path d="m211.46 20.821h-210.38" fill="none" stroke="#fff100" stroke-dasharray="4.76249807, 1.32291613" stroke-linecap="round" stroke-linejoin="round" stroke-width=".52917"/>
</svg>
